<?xml version="1.0" encoding="utf-8"?>
<!-- Generator: Adobe Illustrator 25.0.0, SVG Export Plug-In . SVG Version: 6.00 Build 0)  -->
<svg version="1.1" id="Layer_2_1_" xmlns="http://www.w3.org/2000/svg" xmlns:xlink="http://www.w3.org/1999/xlink" x="0px" y="0px"
	 viewBox="0 0 76.4 82" style="enable-background:new 0 0 76.4 82;" xml:space="preserve">
<style type="text/css">
	.st0{fill:#EEEEEE;}
</style>
<path class="st0" d="M21.7,10.3c0.1-1.3,0.1-2.1,0.2-3c0.2-4.1,3.7-7.3,7.8-7.2C35.3,0,41,0,46.7,0.1c4.1-0.1,7.5,3,7.8,7.1
	c0.1,0.9,0,1.8,0,3h16.2c1,0,2-0.3,2.8,0.1c1,0.6,2,1.4,2.8,2.2c-0.8,0.9-1.8,1.8-2.8,2.5c-0.6,0.4-1.6,0.1-2.8,0.2
	c-0.5,6.2-1.1,12.3-1.6,18.3c-1.1,13.6-2.2,27.2-3.3,40.8c-0.4,4.8-3.5,7.5-8.7,7.5c-12.7,0-25.3,0-38,0c-5.4,0-8.4-2.7-8.9-7.7
	c-1.5-18.7-3-37.4-4.5-56.1c-0.1-2-0.6-3-3-3.1c-1,0-1.9-1.5-2.9-2.4c1-0.8,2-2.2,3-2.2C9.1,10.2,15.2,10.3,21.7,10.3z M11.1,15.4
	c-0.1,0.4-0.2,0.9-0.2,1.3c1.5,19,3.1,38,4.7,57c0.2,2.7,1.8,3.5,4.4,3.4c11.5,0,23,0,34.5,0c5.7,0,6-0.3,6.4-5.6
	c1-12.4,2-24.8,3-37.2c0.5-6.3,1-12.6,1.5-19L11.1,15.4z M49,10.2c0.5-4.5-0.2-5.3-4.5-5.3s-8.4,0-12.6,0s-5.3,1.1-4.4,5.3H49z"/>
<path class="st0" d="M27.4,46.4c0-7.4,0-14.8,0-22.2c0-1.7,0.2-3.4,2.5-3.4c2.5-0.1,2.7,1.7,2.7,3.5c0,14.6,0,29.2,0,43.9
	c0,0.3,0.1,0.7,0,0.9c-0.8,1-1.7,1.8-2.6,2.8c-0.8-0.9-2.4-1.9-2.4-2.8C27.3,61.4,27.4,53.9,27.4,46.4z"/>
<path class="st0" d="M43.9,46.4c0-7.3,0-14.6,0-21.9c0-1.8-0.1-3.6,2.5-3.7c2.8-0.1,2.7,2,2.7,3.8c0,14.5,0,29-0.1,43.6
	c0,1.3-0.7,2.6-1.7,3.4c-1.6,1-3.3-0.5-3.3-2.9C43.8,61.2,43.9,53.8,43.9,46.4z"/>
</svg>
