<?xml version="1.0" encoding="utf-8"?>
<!-- Generator: Adobe Illustrator 25.0.0, SVG Export Plug-In . SVG Version: 6.00 Build 0)  -->
<svg version="1.1" id="Layer_1" xmlns="http://www.w3.org/2000/svg" xmlns:xlink="http://www.w3.org/1999/xlink" x="0px" y="0px"
	 viewBox="0 0 79.6 77.9" style="enable-background:new 0 0 79.6 77.9;" xml:space="preserve">
<style type="text/css">
	.st0{fill:#EEEEEE;}
</style>
<path class="st0" d="M59.4,2.1C56.3,5.9,53.6,8.2,48.7,8C37.4,7.6,26,7.9,14.7,7.9c-6.2,0-8.9,2.6-8.9,8.6c0,15.6,0,31.3,0,46.9
	c0,6.1,2.8,8.7,8.9,8.7c15.5,0,31,0,46.5,0c6.1,0,8.7-2.7,8.7-8.8c0-9.8,0.3-19.7-0.1-29.5c-0.2-4.8,1.3-8.3,5.6-10.8
	c0.1,0.9,0.2,1.8,0.3,2.8c0,12.7,0,25.4,0,38c0,9-5.3,14.2-14.3,14.2c-15.6,0-31.2,0-46.9,0C5.3,77.9,0.1,72.8,0,63.5
	C0,47.8,0,32,0,16.3c0-9,5.2-14.1,14.3-14.2C29.1,2.1,43.9,2.1,59.4,2.1z"/>
<path class="st0" d="M36.8,53.3L26.8,43L62.8,7l10,10.2L36.8,53.3z"/>
<path class="st0" d="M76,14.3c-3.5-3.6-7-7.1-10.5-10.7c3.4-4.7,4.8-4.8,9-0.6l2.1,2.1C80.7,9.2,80.6,10.6,76,14.3z"/>
<path class="st0" d="M21,58.7c0.9-4.5,1.7-8.4,2.4-12.3l9.6,9.9L21,58.7z"/>
</svg>
